<svg xmlns="http://www.w3.org/2000/svg" viewBox="0 0 41.93897 56.5229"><g id="Слой_2" data-name="Слой 2"><g id="Слой_1-2" data-name="Слой 1"><path d="M13.27117,17.16376l-1.47,8.58a.9.9,0,0,0,1.332.942l7.68-4.05,7.704,4.05a.9.9,0,0,0,1.308-.948l-1.47-8.58,6.228-6.072a.9.9,0,0,0-.498-1.536l-8.616-1.248-3.852-7.8a.9.9,0,0,0-1.614,0l-3.87,7.8-8.592,1.248a.9.9,0,0,0-.498,1.536Zm3.6-7.152a.9.9,0,0,0,.678-.492l3.252-6.6,3.252,6.6a.9.9,0,0,0,.678.492l7.278,1.056-5.256,5.136a.9.9,0,0,0-.258.798l1.242,7.248-6.504-3.426a.90006.90006,0,0,0-.84,0l-6.51,3.42,1.242-7.242a.9.9,0,0,0-.258-.798l-5.268-5.13Z"/><path d="M41.93317,24.74176a.90018.90018,0,0,0,0-.204v-.042a.90055.90055,0,0,0-.06-.15l-.03-.054a.88916.88916,0,0,0-.09-.12l-.036-.042a.89459.89459,0,0,0-.162-.132h0l-7.662-4.746a.90312.90312,0,0,0-.96,1.53l6.246,3.876-23.802,11.904-12.936-11.586,6.174-2.934a.90041.90041,0,0,0-.774-1.626l-7.392,3.516a.894.894,0,0,0-.18.12l-.042.036a.888.888,0,0,0-.126.144v.036a.89942.89942,0,0,0-.096.204v.048a.89431.89431,0,0,0,0,.192v18.15a.9.9,0,0,0,.318.69l14.4,12.78h0a.89413.89413,0,0,0,.24.138h.036a.88775.88775,0,0,0,.282.048.8995.8995,0,0,0,.192,0h.042l.138-.048h0l25.8-12.78a.9.9,0,0,0,.48-.828Zm-40.2,2.016,12.6,11.286v15.66l-12.6-11.262Zm38.4,15.534-24,11.928v-16.02l24-12Z"/></g></g></svg>