<svg xmlns="http://www.w3.org/2000/svg" viewBox="0 0 51.52915 37.8"><g id="Слой_2" data-name="Слой 2"><g id="Слой_1-2" data-name="Слой 1"><path d="M41.7,36H1.8V10.2h39v3.876a.9.9,0,0,0,1.8,0V.876A.9.9,0,0,0,41.7,0H.9A.9.9,0,0,0,0,.9v36a.9.9,0,0,0,.9.9H41.7a.9.9,0,1,0,0-1.8ZM40.8,1.8V8.4H1.8V1.8Z"/><path d="M4.8,6H8.4a.9.9,0,0,0,0-1.8H4.8A.9.9,0,1,0,4.8,6Z"/><path d="M13.2,6h3.6a.9.9,0,0,0,0-1.8H13.2a.9.9,0,0,0,0,1.8Z"/><path d="M51.528,25.536v-.078a.88293.88293,0,0,0,0-.09V25.02a.88293.88293,0,0,0,0-.09v-.078l-.036-.084-.048-.078-.03-.054c-.246-.306-6.102-7.836-13.686-7.836-8.328,0-14.472,7.518-14.73,7.836l-.048.072-.048.072a.88188.88188,0,0,0-.036.09v.072a.88851.88851,0,0,0,0,.096v.336a.88851.88851,0,0,0,0,.096v.072a.881.881,0,0,0,.036.09l.048.072.048.072c.258.306,6.402,7.824,14.73,7.824,7.584,0,13.44-7.53,13.686-7.854l.03-.054.048-.078ZM37.728,31.8c-6.222,0-11.28-4.914-12.834-6.6,1.554-1.686,6.6-6.6,12.834-6.6,5.586,0,10.344,4.932,11.796,6.6C48.078,26.868,43.314,31.8,37.728,31.8Z"/><path d="M37.2,20.1a5.1,5.1,0,1,0,5.1,5.1h0A5.106,5.106,0,0,0,37.2,20.1Zm0,8.4a3.3,3.3,0,1,1,3.3-3.3A3.3,3.3,0,0,1,37.2,28.5Z"/></g></g></svg>