<svg xmlns="http://www.w3.org/2000/svg" viewBox="0 0 55.3043 56.58398"><defs><style>.cls-1{fill:#fff;}</style></defs><g id="Слой_2" data-name="Слой 2"><g id="Слой_1-2" data-name="Слой 1"><path d="M37.68457,56.584h-20.231a5.36852,5.36852,0,0,1-5.3625-5.3625V5.3625A5.36853,5.36853,0,0,1,17.45361,0h20.231a5.36853,5.36853,0,0,1,5.3625,5.3625v45.859A5.36852,5.36852,0,0,1,37.68457,56.584ZM17.45361,1.8a3.56655,3.56655,0,0,0-3.5625,3.5625v45.859a3.56655,3.56655,0,0,0,3.5625,3.5625h20.231a3.56655,3.56655,0,0,0,3.5625-3.5625V5.3625A3.56655,3.56655,0,0,0,37.68457,1.8Z"/><path d="M27.65215,7.016a1.88028,1.88028,0,1,1,1.88027-1.88028A1.88237,1.88237,0,0,1,27.65215,7.016Zm0-1.96055a.0804.0804,0,0,0-.08028.08027c0,.08848.16055.08848.16055,0A.08039.08039,0,0,0,27.65215,5.05547Z"/><path class="cls-1" d="M42.0308,6.69213A12.3585,12.3585,0,0,0,31.59118,25.68855l-1.934,5.75078,5.75048-1.93418a12.36921,12.36921,0,1,0,6.62312-22.813Z"/><path d="M29.65723,32.33936a.9002.9002,0,0,1-.85313-1.18682l1.8-5.35225a13.29871,13.29871,0,1,1,4.6916,4.69219l-5.35166,1.8A.8967.8967,0,0,1,29.65723,32.33936Zm5.75039-3.73418a.901.901,0,0,1,.4831.14062,11.49937,11.49937,0,1,0-3.54023-3.53994.90011.90011,0,0,1,.09375.76963l-1.35645,4.033,4.033-1.35645A.90214.90214,0,0,1,35.40762,28.60518Z"/><path d="M45.02549,24.82266H38.54824a2.47153,2.47153,0,0,1-2.46885-2.46885V17.94873A2.56926,2.56926,0,0,1,38.105,15.44092l2.35371-3.842a.90073.90073,0,0,1,.76758-.42979A2.646,2.646,0,0,1,43.86943,13.812v1.57207h2.80371a2.176,2.176,0,0,1,2.10557,2.72637l-1.24922,4.77861A2.58932,2.58932,0,0,1,45.02549,24.82266Zm-3.368-11.73457-2.2459,3.66621a.90073.90073,0,0,1-.76758.42978.76558.76558,0,0,0-.76465.76465v4.40508a.66955.66955,0,0,0,.66885.66885h6.47725a.78891.78891,0,0,0,.7626-.58887l1.24921-4.77832a.37649.37649,0,0,0-.36416-.47139H42.96943a.89986.89986,0,0,1-.9-.9V13.812A.843.843,0,0,0,41.65752,13.08809Z"/><path class="cls-1" d="M13.27347,23.54392A12.35851,12.35851,0,0,1,23.71309,42.54035l1.934,5.75078L19.8966,46.35694a12.36921,12.36921,0,1,1-6.62313-22.813Z"/><path d="M25.64707,49.19121a.89674.89674,0,0,1-.28682-.04687l-5.35166-1.8a13.30279,13.30279,0,1,1,4.69161-4.69248l1.8,5.35253a.90019.90019,0,0,1-.85313,1.18682ZM13.27354,24.44385a11.4737,11.4737,0,1,0,6.14,21.15381.89768.89768,0,0,1,.76993-.09375l4.033,1.35644-1.35644-4.0333a.9.9,0,0,1,.09375-.76963,11.45878,11.45878,0,0,0-9.68027-17.61357Z"/><path d="M13.27354,42.98174a.89708.89708,0,0,1-.63633-.26367L7.2668,37.34824a4.04573,4.04573,0,1,1,5.72168-5.72138l.28506.28476.28505-.28506a4.05083,4.05083,0,0,1,5.72139.0003h.00029A4.05056,4.05056,0,0,1,19.28,37.34824l-5.37012,5.36983A.89707.89707,0,0,1,13.27354,42.98174ZM10.12764,32.243a2.24473,2.24473,0,0,0-1.58819,3.83262l4.73409,4.73349,4.73378-4.73349a2.24858,2.24858,0,0,0-.00029-3.17608h.00029a2.30032,2.30032,0,0,0-3.17607,0l-.92139.92139a.90072.90072,0,0,1-1.27265,0l-.92139-.9211A2.23843,2.23843,0,0,0,10.12764,32.243Z"/></g></g></svg>