<svg xmlns="http://www.w3.org/2000/svg" viewBox="0 0 48.5117 50.16016"><g id="Слой_2" data-name="Слой 2"><g id="Слой_1-2" data-name="Слой 1"><path d="M39.88233,24.74906a.85608.85608,0,0,0-.7876-.52507H29.23829L34.94555,1.0411A.85609.85609,0,0,0,33.50161.2535L9.38273,24.47511a.8561.8561,0,0,0,.605,1.46106h9.85644L14.13688,49.11905a.85609.85609,0,0,0,1.44394.78761L39.6997,25.68505A.8561.8561,0,0,0,39.88233,24.74906ZM16.55105,46.53366,21.7789,25.28554a.85608.85608,0,0,0-.839-1.06155H12.048L32.53138,3.62649,27.31494,24.87462a.85611.85611,0,0,0,.82756,1.06155h8.89191Z"/><path d="M36.5607,35.60427a.85609.85609,0,0,0-1.20994,1.20994l6.84871,6.84871A.85609.85609,0,0,0,43.40941,42.453Z"/><path d="M11.98524,13.66556a.85609.85609,0,0,0,.605-1.46106L5.7415,5.35579A.85609.85609,0,0,0,4.53156,6.56573l6.84871,6.84871A.85612.85612,0,0,0,11.98524,13.66556Z"/><path d="M35.0654,13.12908a.85609.85609,0,0,0,1.20994,0L43.124,6.28036a.85609.85609,0,0,0-1.20994-1.20993L35.0654,11.91914A.85609.85609,0,0,0,35.0654,13.12908Z"/><path d="M11.66564,35.88963,4.81693,42.73834A.85609.85609,0,1,0,5.98419,43.991q.02208-.02058.04268-.04268l6.84871-6.84871a.85609.85609,0,0,0-1.20994-1.20994Z"/><circle cx="6.56335" cy="31.92879" r="1.42681"/><circle cx="1.42681" cy="27.93371" r="1.42681"/><circle cx="47.08489" cy="20.51427" r="1.42681"/><circle cx="13.98279" cy="6.24612" r="1.42681"/></g></g></svg>