<svg xmlns="http://www.w3.org/2000/svg" viewBox="0 0 45.6 42.6"><g id="Слой_2" data-name="Слой 2"><g id="Слой_1-2" data-name="Слой 1"><path d="M41.538,0H4.062C1.836,0,.054,1.458,0,3.348V30.792C0,32.67,1.8,34.2,4.062,34.2H21.6v6.6H11.1a.9.9,0,0,0,0,1.8H34.5a.9.9,0,1,0,0-1.8H23.4V34.2H41.538c2.262,0,4.062-1.53,4.062-3.408V3.408C45.6,1.53,43.8,0,41.538,0ZM43.8,30.792c0,.87-1.038,1.608-2.262,1.608H4.062c-1.2,0-2.262-.738-2.262-1.608V3.372C1.8,2.508,2.838,1.8,4.062,1.8H41.538c1.2,0,2.262.738,2.262,1.608Z"/><path d="M25.962,11.778a.9.9,0,0,0-1.2.39L19.914,21.6a.90029.90029,0,1,0,1.602.822h0l4.836-9.45A.9.9,0,0,0,25.962,11.778Z"/><path d="M31.716,11.448a.9.9,0,0,0-1.272,1.272l4.488,4.482-4.488,4.482a.9.9,0,0,0,1.22708,1.31692q.02325-.02166.04492-.04492l5.124-5.118a.9.9,0,0,0,0-1.272Z"/><path d="M15.84,11.448a.9.9,0,0,0-1.272,0L9.444,16.572a.9.9,0,0,0,0,1.272l5.124,5.124a.9.9,0,0,0,1.272-1.272l-4.488-4.482L15.84,12.72A.9.9,0,0,0,15.84,11.448Z"/></g></g></svg>