<svg xmlns="http://www.w3.org/2000/svg" viewBox="0 0 40.65282 50.99998"><g id="Слой_2" data-name="Слой 2"><g id="Слой_1-2" data-name="Слой 1"><path d="M31.58491,18.97649a2.74618,2.74618,0,0,0-1.02.19615v-.26341a3.01515,3.01515,0,0,0-3.00956-3.00955h-.14011a2.97025,2.97025,0,0,0-1.38988.35868,3.01518,3.01518,0,0,0-2.94792-2.40429,3.23929,3.23929,0,0,0-1.47395.35308v-4.349h5.32417a.84066.84066,0,0,0,.84066-.84066V.84068A.84066.84066,0,0,0,26.92768,0l-.00562,0H9.54844a.84066.84066,0,0,0-.84066.84066v8.1768a.84066.84066,0,0,0,.84066.84066h5.88461V30.42626L10.50679,26.3911a5.17844,5.17844,0,0,0-6.96625.29143.84065.84065,0,0,0-.06726,1.12087L15.43305,43.09218v7.06714a.84066.84066,0,1,0,1.68132,0V42.80076a.84068.84068,0,0,0-.17934-.51561L5.30032,27.39989a3.49712,3.49712,0,0,1,4.13043.27461l6.31055,5.17286a.84066.84066,0,0,0,1.37307-.64451V7.06716a1.33385,1.33385,0,0,1,1.32824-1.32824h.14011a1.33384,1.33384,0,0,1,1.33385,1.32824v17.8724a.84066.84066,0,0,0,1.68132,0V16.81319a1.4179,1.4179,0,0,1,1.474-1.27219,1.33385,1.33385,0,0,1,1.32824,1.32824v8.07032a.84066.84066,0,0,0,1.68132,0V18.91484a1.33385,1.33385,0,0,1,1.32824-1.32824h.14011a1.33384,1.33384,0,0,1,1.33384,1.32824v6.02472a.84066.84066,0,0,0,1.68132,0V21.85714a1.05921,1.05921,0,0,1,1.02-1.19933,1.22175,1.22175,0,0,1,1.22176,1.19933V36.36691a8.66994,8.66994,0,0,1-2.55561,6.16483.8407.8407,0,0,0-.24659.62209v6.44505a.84066.84066,0,0,0,1.68132,0v-6.1256a10.33453,10.33453,0,0,0,2.8022-7.10637V21.85714A2.90308,2.90308,0,0,0,31.58491,18.97649ZM18.58833,4.052h-.14011a3.01517,3.01517,0,0,0-3.01517,3.01517h0V8.188h-5.044V1.68134H26.0814V8.17683H21.59789V7.056A3.01518,3.01518,0,0,0,18.58833,4.052Z"/><path d="M39.81216,3.36265H31.40557a.84066.84066,0,1,0,0,1.68132h8.40659a.84066.84066,0,0,0,0-1.68132Z"/><path d="M31.50084,8.40661a.84066.84066,0,0,0-1.18813,1.18813l7.49307,7.50988a.84066.84066,0,0,0,1.16572-1.18813Z"/><path d="M7.06009,11.17518a.84065.84065,0,0,0-1.18813,0L.26757,16.77957a.84066.84066,0,1,0,1.14618,1.23008q.02171-.02023.04195-.04195l5.60439-5.60439A.81615.81615,0,0,0,7.123,11.19666.05684.05684,0,0,0,7.06009,11.17518Z"/></g></g></svg>